{
    "asset": {
        "version": "2.0",
        "generator": "Open Asset Import Library (assimp v5.2.cf7d3637)"
    },
    "extensionsUsed": [
        "KHR_materials_volume",
        "FB_ngon_encoding"
    ],
    "accessors": [
        {
            "bufferView": 0,
            "byteOffset": 0,
            "componentType": 5126,
            "count": 30000,
            "type": "VEC3",
            "max": [
                0.9983350038528442,
                1.0001300573349,
                0.019254600629210473
            ],
            "min": [
                -0.9999539852142334,
                -0.9978730082511902,
                -0.0189542006701231
            ]
        },
        {
            "bufferView": 1,
            "byteOffset": 0,
            "componentType": 5126,
            "count": 30000,
            "type": "VEC3",
            "max": [
                0.9999870657920837,
                0.9999569058418274,
                1.0
            ],
            "min": [
                -0.9999996423721314,
                -0.9999966025352478,
                -1.0
            ]
        },
        {
            "bufferView": 2,
            "byteOffset": 0,
            "componentType": 5126,
            "count": 30000,
            "type": "VEC2",
            "max": [
                0.9989830255508423,
                0.9999479055404663
            ],
            "min": [
                0.000034812801459338519,
                0.000030994415283203128
            ]
        },
        {
            "bufferView": 3,
            "byteOffset": 0,
            "componentType": 5125,
            "count": 30000,
            "type": "SCALAR",
            "max": [
                29999
            ],
            "min": [
                0
            ]
        }
    ],
    "buffers": [
        {
            "byteLength": 1080000,
            "uri": "result.bin"
        }
    ],
    "bufferViews": [
        {
            "buffer": 0,
            "byteOffset": 0,
            "byteLength": 360000,
            "target": 34962
        },
        {
            "buffer": 0,
            "byteOffset": 360000,
            "byteLength": 360000,
            "target": 34962
        },
        {
            "buffer": 0,
            "byteOffset": 720000,
            "byteLength": 240000,
            "target": 34962
        },
        {
            "buffer": 0,
            "byteOffset": 960000,
            "byteLength": 120000,
            "target": 34963
        }
    ],
    "images": [
        {
            "name": "temp.fbm/texture_0.png",
            "uri": "data:image/png;base64,"
        }
    ],
    "materials": [
        {
            "name": "Material.001",
            "pbrMetallicRoughness": {
                "baseColorTexture": {
                    "index": 0
                },
                "baseColorFactor": [
                    0.800000011920929,
                    0.800000011920929,
                    0.800000011920929,
                    1.0
                ],
                "metallicFactor": 0.0,
                "roughnessFactor": 0.5
            }
        }
    ],
    "meshes": [
        {
            "name": "temp",
            "primitives": [
                {
                    "mode": 4,
                    "material": 0,
                    "indices": 3,
                    "attributes": {
                        "POSITION": 0,
                        "NORMAL": 1,
                        "TEXCOORD_0": 2
                    }
                }
            ]
        }
    ],
    "nodes": [
        {
            "name": "RootNode",
            "children": [
                1
            ]
        },
        {
            "name": "temp",
            "matrix": [
                100.0,
                0.0,
                0.0,
                0.0,
                0.0,
                100.0,
                0.0,
                0.0,
                0.0,
                0.0,
                100.0,
                0.0,
                0.0,
                0.0,
                0.0,
                1.0
            ],
            "mesh": 0,
            "extras": {
                "UserProperties": "",
                "IsNull": false,
                "DefaultAttributeIndex": 0,
                "InheritType": 1
            }
        }
    ],
    "samplers": [
        {}
    ],
    "scenes": [
        {
            "nodes": [
                0
            ]
        }
    ],
    "textures": [
        {
            "source": 0,
            "sampler": 0
        }
    ],
    "scene": 0
}